<?xml version="1.0" standalone="no"?>
<svg xmlns="http://www.w3.org/2000/svg" width="24" height="24"><rect width="24" height="24" opacity="0"></rect><g><path d="M12.79 6.05Q12.43 5.69 11.92 5.69Q11.4 5.69 11.04 6.05L6 11.06Q5.81 11.28 5.81 11.59Q5.81 11.9 6 12.12Q6.24 12.36 6.54 12.36Q6.84 12.36 7.08 12.12L11.18 8.02L11.18 17.21Q11.18 17.52 11.4 17.74Q11.62 17.95 11.93 17.95Q12.24 17.95 12.47 17.74Q12.7 17.52 12.7 17.21L12.7 8.06L16.73 12.12Q16.97 12.34 17.28 12.34Q17.59 12.34 17.78 12.12Q18.02 11.9 18.02 11.59Q18.02 11.28 17.78 11.06L12.79 6.05Z" fill="rgba(0,0,0,0.9019607843137255)"></path><path d="M12 2.5Q14.57 2.5 16.75 3.78Q18.94 5.06 20.22 7.25Q21.5 9.43 21.5 12Q21.5 14.57 20.22 16.75Q18.94 18.94 16.75 20.22Q14.57 21.5 12 21.5Q9.41 21.5 7.22 20.22Q5.04 18.94 3.77 16.75Q2.5 14.57 2.5 12Q2.5 9.43 3.77 7.25Q5.04 5.06 7.22 3.78Q9.41 2.5 12 2.5ZM12 1.01Q9.02 1.01 6.49 2.48Q3.96 3.96 2.48 6.49Q1.01 9.02 1.01 12Q1.01 14.98 2.48 17.51Q3.96 20.04 6.49 21.52Q9.02 22.99 12 22.99Q14.98 22.99 17.51 21.52Q20.04 20.04 21.52 17.51Q22.99 14.98 22.99 12Q22.99 9.02 21.52 6.49Q20.04 3.96 17.51 2.48Q14.98 1.01 12 1.01Z" fill="rgba(0,0,0,0.9019607843137255)"></path></g></svg>