<svg viewBox="0 0 24 24" xmlns="http://www.w3.org/2000/svg" xmlns:xlink="http://www.w3.org/1999/xlink" width="24.000000" height="24.000000" fill="none">
	<defs>
		<filter id="pixso_custom_mask_type_luminance">
			<feColorMatrix type="matrix" values="1 0 0 0 0 0 1 0 0 0 0 0 1 0 0 0 0 0 1 0 " />
		</filter>
	</defs>
	<mask id="mask_0" width="24.549999" height="24.000000" x="0.000000" y="0.000000" maskUnits="userSpaceOnUse">
		<g filter="url(#pixso_custom_mask_type_luminance)">
			<g id="hms_mask_0">
				<rect id="矩形 542464" width="24.000000" height="24.000000" x="0.000000" y="0.000000" fill="rgb(255,255,255)" />
				<g id="组合 29654">
					<path id="矢量 21" d="M19.2504 12.8201C18.2904 12.8201 17.4071 13.0534 16.6004 13.5201C15.7871 13.9934 15.1404 14.6334 14.6604 15.4401C14.1804 16.2534 13.9404 17.1401 13.9404 18.1001C13.9404 19.0601 14.1771 19.9467 14.6504 20.7601C15.1238 21.5734 15.7671 22.2201 16.5804 22.7001C17.4004 23.1801 18.2904 23.4201 19.2504 23.4201C20.2104 23.4201 21.0971 23.1801 21.9104 22.7001C22.7304 22.2201 23.3738 21.5734 23.8404 20.7601C24.3138 19.9467 24.5504 19.0601 24.5504 18.1001C24.5504 17.1401 24.3104 16.2534 23.8304 15.4401C23.3504 14.6334 22.7071 13.9934 21.9004 13.5201C21.0938 13.0534 20.2104 12.8201 19.2504 12.8201Z" fill="rgb(0,0,0)" fill-rule="evenodd" />
				</g>
			</g>
		</g>
	</mask>
	<rect id="book_closed_right_left_badge_plus" width="24.000000" height="24.000000" x="0.000000" y="0.000000" />
	<rect id="矩形 542463" width="24.000000" height="24.000000" x="0.000000" y="0.000000" opacity="0" fill="rgb(0,0,0)" />
	<g id="mask" mask="url(#mask_0)">
		<g id="组合 29653">
			<path id="矢量 20" d="M21.5296 11.14C21.8296 11.14 22.0963 11.0666 22.3296 10.92C22.5629 10.7733 22.7263 10.59 22.8196 10.37C22.9196 10.1433 22.9463 9.90998 22.8996 9.66998C22.8463 9.42998 22.7329 9.21331 22.5596 9.01998L22.4896 8.94998C22.2296 8.69664 22.0263 8.33998 21.8796 7.87998C21.7263 7.42664 21.6496 6.95998 21.6496 6.47998C21.6496 6.06664 21.7296 5.63998 21.8896 5.19998C22.0496 4.75998 22.2663 4.36331 22.5396 4.00998L22.6296 3.85998C22.8096 3.59331 22.8996 3.34331 22.8996 3.10998C22.8996 2.87664 22.8596 2.69664 22.7796 2.56998C22.6796 2.36331 22.5396 2.20331 22.3596 2.08998C22.1729 1.97664 21.9429 1.90331 21.6696 1.86998C21.6229 1.85664 21.5529 1.84998 21.4596 1.84998L5.58961 1.84998C4.74294 1.84998 3.95627 2.03998 3.22961 2.41998C2.50294 2.80664 1.91294 3.33664 1.45961 4.00998C1.01294 4.68331 0.766275 5.42664 0.719608 6.23998C0.686275 7.13331 0.872941 7.95331 1.27961 8.69998C1.69294 9.44664 2.26294 10.04 2.98961 10.48C3.71627 10.92 4.50294 11.14 5.34961 11.14L21.5296 11.14ZM21.1696 3.35998C20.8496 3.82664 20.5996 4.32998 20.4196 4.86998C20.2463 5.41664 20.1596 5.95331 20.1596 6.47998C20.1596 7.05331 20.2429 7.61664 20.4096 8.16998C20.5763 8.72331 20.8129 9.20664 21.1196 9.61998L5.37961 9.61998C4.78627 9.61998 4.23961 9.46998 3.73961 9.16998C3.24627 8.86331 2.86294 8.45998 2.58961 7.95998C2.31627 7.45331 2.19627 6.90331 2.22961 6.30998C2.24961 5.78331 2.41294 5.29331 2.71961 4.83998C3.03294 4.37998 3.44627 4.01998 3.95961 3.75998C4.47294 3.49331 5.01627 3.35998 5.58961 3.35998L21.1696 3.35998ZM18.6196 22.13C19.2596 22.13 19.8663 22.0066 20.4396 21.76C21.0063 21.5066 21.5196 21.15 21.9796 20.69C22.4129 20.2433 22.7429 19.7233 22.9696 19.13C23.1896 18.5366 23.2863 17.9133 23.2596 17.26C23.2063 16.46 22.9563 15.7233 22.5096 15.05C22.0629 14.3766 21.4763 13.8433 20.7496 13.45C20.0229 13.0566 19.2329 12.86 18.3796 12.86L2.51961 12.86C2.21294 12.86 1.94627 12.9266 1.71961 13.06C1.48627 13.1866 1.31294 13.36 1.19961 13.58C0.992941 14.0466 1.07294 14.5266 1.43961 15.02C1.71294 15.3733 1.92961 15.7733 2.08961 16.22C2.24961 16.6733 2.32961 17.1066 2.32961 17.52C2.32961 17.9866 2.25294 18.4466 2.09961 18.9C1.94627 19.3533 1.74294 19.71 1.48961 19.97L1.43961 20.02C1.26627 20.2266 1.14961 20.4533 1.08961 20.7C1.03627 20.9466 1.05627 21.1733 1.14961 21.38C1.24961 21.6066 1.41294 21.7866 1.63961 21.92C1.87294 22.06 2.14294 22.13 2.44961 22.13L18.6196 22.13ZM2.87961 20.64C3.16627 20.24 3.39961 19.76 3.57961 19.2C3.75294 18.64 3.83961 18.08 3.83961 17.52C3.83961 16.9933 3.75294 16.4566 3.57961 15.91C3.39961 15.37 3.14961 14.86 2.82961 14.38L18.4096 14.38C18.9829 14.38 19.5229 14.51 20.0296 14.77C20.5296 15.0366 20.9363 15.3966 21.2496 15.85C21.5629 16.31 21.7363 16.8033 21.7696 17.33C21.7829 17.7766 21.7196 18.2 21.5796 18.6C21.4329 19 21.2063 19.36 20.8996 19.68C20.5996 19.9866 20.2529 20.2233 19.8596 20.39C19.4663 20.5566 19.0529 20.64 18.6196 20.64L2.87961 20.64Z" fill="rgb(0,0,0)" fill-opacity="0.90196079" fill-rule="evenodd" />
		</g>
	</g>
	<g id="组合 29655">
		<path id="矢量 22" d="M19.2502 14.11C18.5302 14.11 17.8602 14.29 17.2402 14.65C16.6269 15.01 16.1402 15.4933 15.7802 16.1C15.4202 16.7133 15.2402 17.38 15.2402 18.1C15.2402 18.8333 15.4202 19.5067 15.7802 20.12C16.1402 20.74 16.6269 21.23 17.2402 21.59C17.8602 21.95 18.5302 22.13 19.2502 22.13C19.9702 22.13 20.6369 21.95 21.2502 21.59C21.8702 21.23 22.3602 20.74 22.7202 20.12C23.0802 19.5067 23.2602 18.8333 23.2602 18.1C23.2602 17.38 23.0802 16.7133 22.7202 16.1C22.3602 15.4933 21.8702 15.01 21.2502 14.65C20.6369 14.29 19.9702 14.11 19.2502 14.11ZM21.1702 17.64C21.3102 17.64 21.4302 17.6867 21.5302 17.78C21.6236 17.88 21.6702 18 21.6702 18.14C21.6702 18.2733 21.6236 18.39 21.5302 18.49C21.4302 18.5967 21.3102 18.65 21.1702 18.65L19.7302 18.65L19.7302 20.09C19.7302 20.23 19.6769 20.35 19.5702 20.45C19.4702 20.5433 19.3536 20.59 19.2202 20.59C19.0802 20.59 18.9602 20.5433 18.8602 20.45C18.7669 20.35 18.7202 20.23 18.7202 20.09L18.7202 18.65L17.2802 18.65C17.1336 18.65 17.0136 18.5967 16.9202 18.49C16.8269 18.39 16.7802 18.2733 16.7802 18.14C16.7802 18 16.8269 17.88 16.9202 17.78C17.0136 17.6867 17.1336 17.64 17.2802 17.64L18.7202 17.64L18.7202 16.18C18.7202 16.0467 18.7669 15.9333 18.8602 15.84C18.9602 15.7467 19.0802 15.7 19.2202 15.7C19.3536 15.7 19.4702 15.7467 19.5702 15.84C19.6769 15.9333 19.7302 16.0467 19.7302 16.18L19.7302 17.64L21.1702 17.64Z" fill="rgb(0,0,0)" fill-opacity="0.90196079" fill-rule="nonzero" />
	</g>
</svg>
