<svg viewBox="0 0 48 48" xmlns="http://www.w3.org/2000/svg" xmlns:xlink="http://www.w3.org/1999/xlink" width="48.000000" height="48.000000" fill="none">
	<defs>
		<filter id="pixso_custom_mask_type_luminance">
			<feColorMatrix type="matrix" values="1 0 0 0 0 0 1 0 0 0 0 0 1 0 0 0 0 0 1 0 " />
		</filter>
		<linearGradient id="paint_linear_0" x1="24.0195312" x2="24.0195312" y1="2.97998047" y2="44.9799805" gradientUnits="userSpaceOnUse">
			<stop stop-color="rgb(255,255,255)" offset="0" stop-opacity="0.600000024" />
			<stop stop-color="rgb(255,255,255)" offset="1" stop-opacity="0.200000003" />
		</linearGradient>
	</defs>
	<mask id="mask_1" width="48.000000" height="48.000000" x="0.000000" y="0.000000" maskUnits="userSpaceOnUse">
		<g filter="url(#pixso_custom_mask_type_luminance)">
			<g id="hms_mask_0">
				<rect id="矩形 542472" width="48.000000" height="48.000000" x="0.000000" y="0.000000" fill="rgb(255,255,255)" />
				<g id="组合 29668">
					<path id="矢量 31" d="M11.04 35.81C11.5534 34.2433 12.4267 32.85 13.66 31.63C14.8867 30.4166 16.31 29.4733 17.93 28.8C19.5434 28.1266 21.1667 27.79 22.8 27.79L25.2 27.79C26.8334 27.79 28.4567 28.1266 30.07 28.8C31.69 29.4733 33.1067 30.4166 34.32 31.63C35.5334 32.85 36.3967 34.2433 36.91 35.81C35.2167 37.6633 33.2667 39.08 31.06 40.06C28.8467 41.0333 26.4934 41.52 24 41.52C21.44 41.52 19.0567 41.0233 16.85 40.03C14.6434 39.0366 12.7067 37.63 11.04 35.81ZM19.3 12.96C20.6067 11.6466 22.1667 11 23.98 11.02C25.7867 11.0333 27.3467 11.6966 28.66 13.01C29.9667 14.3233 30.63 15.8833 30.65 17.69C30.6634 19.4966 30.0134 21.0566 28.7 22.37C27.3934 23.6833 25.8334 24.33 24.02 24.31C22.2134 24.2966 20.6534 23.6333 19.34 22.32C18.0334 21.0066 17.37 19.4466 17.35 17.64C17.3367 15.8333 17.9867 14.2733 19.3 12.96Z" fill="rgb(0,0,0)" fill-rule="evenodd" />
				</g>
			</g>
		</g>
	</mask>
	<rect id="person_crop_circle_fill_1" width="48.000000" height="48.000000" x="0.000000" y="0.000000" />
	<rect id="矩形 542471" width="48.000000" height="48.000000" x="0.000000" y="0.000000" opacity="0" fill="rgb(0,0,0)" />
	<g id="mask" mask="url(#mask_1)">
		<g id="组合 29667">
			<path id="矢量 30" d="M3.01953 24C3.01953 27.8066 3.9562 31.31 5.82953 34.51C7.70286 37.71 10.2462 40.2533 13.4595 42.14C16.6795 44.0333 20.1929 44.98 23.9995 44.98C27.8062 44.98 31.3195 44.0333 34.5395 42.14C37.7529 40.2533 40.3029 37.7033 42.1895 34.49C44.0762 31.27 45.0195 27.7733 45.0195 24C45.0195 20.1933 44.0762 16.68 42.1895 13.46C40.3029 10.2466 37.7529 7.69665 34.5395 5.80998C31.3195 3.92331 27.8062 2.97998 23.9995 2.97998C20.1929 2.97998 16.6795 3.92331 13.4595 5.80998C10.2462 7.69665 7.70286 10.2466 5.82953 13.46C3.9562 16.68 3.01953 20.1933 3.01953 24Z" fill="rgb(153,153,153)" fill-rule="evenodd" />
			<path id="矢量 30" d="M3.01953 24C3.01953 27.8066 3.9562 31.31 5.82953 34.51C7.70286 37.71 10.2462 40.2533 13.4595 42.14C16.6795 44.0333 20.1929 44.98 23.9995 44.98C27.8062 44.98 31.3195 44.0333 34.5395 42.14C37.7529 40.2533 40.3029 37.7033 42.1895 34.49C44.0762 31.27 45.0195 27.7733 45.0195 24C45.0195 20.1933 44.0762 16.68 42.1895 13.46C40.3029 10.2466 37.7529 7.69665 34.5395 5.80998C31.3195 3.92331 27.8062 2.97998 23.9995 2.97998C20.1929 2.97998 16.6795 3.92331 13.4595 5.80998C10.2462 7.69665 7.70286 10.2466 5.82953 13.46C3.9562 16.68 3.01953 20.1933 3.01953 24Z" fill="url(#paint_linear_0)" fill-rule="evenodd" />
			<path id="矢量 30" d="M4.01634 30.4789C3.3518 28.4268 3.01953 26.2672 3.01953 24C3.01953 21.7939 3.33411 19.6864 3.96327 17.6773C4.41976 16.2197 5.04184 14.8139 5.82953 13.46C6.75299 11.876 7.83925 10.4532 9.08833 9.19152C10.3731 7.8938 11.8302 6.76662 13.4595 5.80998C14.8374 5.00265 16.269 4.36805 17.7543 3.90618C19.7401 3.28871 21.8218 2.97998 23.9995 2.97998C26.1773 2.97998 28.259 3.28871 30.2447 3.90618C31.73 4.36805 33.1616 5.00265 34.5395 5.80998C36.1462 6.75331 37.587 7.86248 38.862 9.13749C40.137 10.4125 41.2462 11.8533 42.1895 13.46C42.9969 14.8379 43.6315 16.2695 44.0933 17.7548C44.7108 19.7405 45.0195 21.8223 45.0195 24C45.0195 27.7733 44.0762 31.27 42.1895 34.49C41.2462 36.0966 40.137 37.5375 38.862 38.8125C37.587 40.0875 36.1462 41.1966 34.5395 42.14C33.1498 42.9571 31.7055 43.5979 30.2065 44.0624C28.2323 44.6741 26.1633 44.98 23.9995 44.98C21.8358 44.98 19.7668 44.6741 17.7925 44.0624C16.2936 43.5979 14.8492 42.9571 13.4595 42.14C11.791 41.1603 10.3031 40.0036 8.9958 38.6698C7.78554 37.4349 6.73011 36.0483 5.82953 34.51C5.07195 33.2159 4.46755 31.8722 4.01634 30.4789ZM9.28314 38.3822C8.09713 37.1717 7.06279 35.8125 6.18012 34.3047C5.44105 33.0423 4.85072 31.7315 4.40912 30.3724C3.75356 28.3547 3.42578 26.2306 3.42578 24C3.42578 21.8294 3.73611 19.7564 4.35678 17.7809C4.80375 16.3582 5.41165 14.9861 6.18049 13.6646C7.08655 12.1104 8.15237 10.7145 9.37795 9.47669C10.638 8.20406 12.067 7.09867 13.6649 6.1605C15.0111 5.37171 16.4098 4.75112 17.8609 4.29874C19.8123 3.6904 21.8585 3.38623 23.9995 3.38623C26.1413 3.38623 28.1881 3.69059 30.14 4.29931C31.5904 4.75161 32.9883 5.37194 34.3338 6.16031C35.9109 7.08624 37.325 8.17499 38.5763 9.42657C39.8264 10.677 40.914 12.0899 41.839 13.6654C42.6277 15.0114 43.2482 16.4098 43.7006 17.8607C44.309 19.8123 44.6133 21.8587 44.6133 24C44.6133 26.0022 44.3425 27.9249 43.8008 29.768C43.3416 31.3306 42.6878 32.8361 41.8392 34.2843C40.9141 35.8599 39.8263 37.273 38.576 38.5236C37.3247 39.7751 35.9106 40.8639 34.3336 41.7898C32.9756 42.5883 31.5643 43.215 30.0995 43.67C28.1598 44.2725 26.1264 44.5737 23.9995 44.5737C21.8732 44.5737 19.8403 44.2726 17.901 43.6704C16.4357 43.2154 15.0238 42.5884 13.6652 41.7896C12.027 40.8278 10.5663 39.692 9.28314 38.3822Z" fill="rgb(151,151,151)" fill-opacity="0" fill-rule="evenodd" />
		</g>
	</g>
</svg>
